PathFileType	4	(X/Y/Z)	C:\Users\WrightLab\Desktop\Jo\P5V33.trc
DataRate	CameraRate	NumFrames	NumMarkers	Units	OrigDataRate	OrigDataStartFrame	OrigNumFrames
100.00	100.00	      18	19	mm	100.00	933	      1066
Frame#	Time	Headset_Front			Headset_Back			Headset_Left			Headset_Right			Left_Shoulder			Right_Shoulder			Sternum			C7			Left Elbow			Right Elbow			Left Wrist			Right Wrist			Left ASIS			Right ASIS			S2			Left Knee			Right Knee			Left Ankle			Right Ankle			
		X1	Y1	Z1	X2	Y2	Z2	X3	Y3	Z3	X4	Y4	Z4	X5	Y5	Z5	X6	Y6	Z6	X7	Y7	Z7	X8	Y8	Z8	X9	Y9	Z9	X10	Y10	Z10	X11	Y11	Z11	X12	Y12	Z12	X13	Y13	Z13	X14	Y14	Z14	X15	Y15	Z15	X16	Y16	Z16	X17	Y17	Z17	X18	Y18	Z18	X19	Y19	Z19	

933	9.320				236.20560	1506.04700	-796.81860				57.39536	1561.09204	-1055.58142	365.59354	1434.63025	-1184.84790				228.39185	1308.98279	-1017.83765				122.60440	1288.44824	-841.37836	229.85170	1155.71094	-1240.64880	251.95340	1230.65356	-694.43958				164.71947	924.95154	-876.33087	298.64694	929.85669	-1135.72754	474.77039	964.93066	-868.71436	106.84039	521.39227	-933.91406	402.59219	485.35837	-1152.84058	296.62637	179.70595	-828.27509				
934	9.330				232.09930	1506.51428	-800.48962				51.74620	1560.95544	-1056.65979	358.02225	1434.46399	-1190.74487	449.12344	1180.36133	-1245.63611	223.05093	1308.49255	-1021.03522				118.68803	1288.19141	-843.75708	221.63637	1155.95898	-1243.94348	250.09293	1230.10596	-698.57532				161.48836	924.56537	-879.43512	292.80777	929.79614	-1138.45959	470.56052	964.75336	-875.25635	101.25548	521.22363	-937.95404	397.95566	484.02698	-1155.63879	281.08908	170.87981	-841.82416				
935	9.340				230.33075	1506.64819	-804.21387				45.67355	1561.01489	-1059.34143	350.86609	1434.39221	-1195.41882	440.73083	1180.34045	-1251.36731	218.00636	1308.54443	-1023.83948				114.95046	1287.44861	-846.60779	412.68237	1516.69238	-976.86835	247.27646	1230.03369	-701.96063				158.50795	924.48212	-881.41650	286.76358	928.73212	-1142.90674	465.56552	965.03717	-881.07385	96.03955	521.53040	-941.15704	393.33630	483.01785	-1158.31970	265.47601	161.55745	-856.07483				
936	9.350				225.57788	1506.05920	-807.60858				39.81798	1560.39709	-1060.62329	343.86542	1433.67371	-1199.31836	432.33038	1179.79749	-1257.11365	212.31772	1308.35547	-1027.94263				110.90079	1287.35303	-848.65491	407.42264	1516.57397	-982.15179	245.19191	1229.05603	-706.73572				155.01837	924.01184	-884.57343	280.51291	928.47473	-1145.87744	461.97958	965.14282	-887.71942	91.28886	522.43378	-942.96301	388.92056	483.02396	-1160.76196	249.83597	152.91063	-870.65430				
937	9.360				222.71535	1506.15015	-810.80353				34.09398	1560.58386	-1061.99097	336.69757	1433.42871	-1203.80127	402.00778	1516.33789	-987.47772	206.79958	1308.02075	-1031.39929				107.49511	1286.97119	-851.51819				243.16943	1229.01331	-710.33386				152.20020	924.05713	-886.41046	274.76816	927.89813	-1148.81299	457.44910	965.31744	-893.00366	87.03589	522.30176	-944.80090	383.54416	483.36569	-1162.72217	232.59454	144.49335	-884.82086				
938	9.370				218.49847	1505.59290	-813.69397				28.17445	1560.59595	-1063.58044	329.23669	1433.56580	-1209.34058	396.71609	1516.11584	-992.58331	200.98842	1307.59314	-1035.38782				103.54861	1286.36755	-853.69806				240.57242	1229.17065	-714.49622				147.99069	923.70154	-889.63733	268.73782	927.76624	-1150.90332	452.24854	965.62634	-899.19470	82.04501	522.58362	-946.29547	379.13107	482.05612	-1165.57312	216.27654	134.77402	-899.37311				
939	9.380				215.06308	1504.75610	-817.42609				22.32553	1560.40991	-1064.47656	322.11978	1433.81946	-1213.76099	391.52710	1515.67334	-997.02997	195.82190	1307.61902	-1037.51111				99.24641	1286.34668	-856.57855				238.49219	1227.67285	-718.09033				144.24287	923.22968	-892.53583	262.76477	926.67163	-1154.40125	447.01712	965.24518	-904.19830	78.87208	520.99261	-947.44452	374.11237	481.84882	-1166.92993	199.29483	127.08513	-913.51355				
940	9.390				210.38339	1504.39233	-821.20044				16.41960	1560.53601	-1065.71875				385.96759	1515.38953	-1002.10730	190.12170	1307.09412	-1040.74451				95.70798	1285.68274	-858.53186				235.91858	1227.85583	-722.50867				140.43080	922.66675	-894.34125	256.93042	926.29236	-1155.73413	442.34030	965.59753	-908.47583	75.37440	520.06165	-946.42914	369.12439	480.76810	-1170.35754	182.28215	119.51710	-927.99420				
941	9.400				207.82983	1504.59839	-824.07581				10.46470	1559.77954	-1066.23840				380.67511	1514.83362	-1006.60083	184.08482	1306.59009	-1044.76941				91.35571	1285.49268	-861.02014				233.29140	1226.58826	-726.19525				136.18474	922.27448	-896.99548	250.90169	925.56738	-1158.16553	437.12463	965.52087	-912.28088	72.76891	518.42517	-946.12756	364.90518	480.59238	-1170.95544	164.55977	111.74107	-941.95801				
942	9.410				181.54791	1514.81152	-830.72620				4.61594	1560.21912	-1067.19641				374.99658	1514.45715	-1011.56189	178.19580	1306.37317	-1048.22986				87.70319	1284.61438	-862.28748				231.21376	1227.08765	-728.11005				131.08189	921.56976	-898.97253	244.68275	924.61664	-1161.86621	432.10571	964.77875	-916.04950	70.83153	515.65717	-945.79968	359.58490	479.03458	-1175.51416	148.00496	105.44178	-954.79419				
943	9.420				173.80371	1514.95422	-833.58441				-1.18932	1559.90747	-1067.44946				369.58563	1513.80835	-1016.01587	172.55556	1305.34436	-1050.28247				83.81528	1284.46777	-864.60510				226.75980	1225.41187	-732.33801				127.09821	921.24292	-900.51660	238.71190	924.32440	-1162.98877	427.35025	964.52417	-919.91711	69.56123	513.43970	-945.50616	355.22037	476.38049	-1177.00549	131.35458	100.18313	-968.15607				
944	9.430				165.96693	1515.74658	-837.68665				-7.19006	1559.57544	-1068.45007				364.20798	1512.92590	-1019.77155	166.64552	1304.75183	-1053.20154				79.10163	1283.62866	-866.81201				225.18968	1224.96716	-735.74854				122.87461	920.83319	-902.92004	232.56947	923.76660	-1165.38806	422.27328	964.25458	-924.01239	68.30486	510.23596	-944.70929	352.07928	476.13559	-1179.19836	115.66077	95.47988	-980.56238				
945	9.440				158.10263	1515.35144	-840.85492				-12.92006	1559.76831	-1069.08264				358.47244	1512.15295	-1024.88855	160.61824	1304.42236	-1056.33679				75.03941	1282.64063	-868.08252				220.82184	1225.43848	-737.68793				117.06491	920.48450	-904.70093	226.50400	922.86328	-1167.29053	416.40558	963.77484	-926.44647	67.99316	506.59555	-942.70319	346.30530	474.91559	-1181.84473	101.21387	91.58458	-992.81775				
946	9.450				150.39819	1515.81128	-844.24670				-18.70298	1559.22681	-1069.19202				352.83011	1511.42981	-1028.59985	155.05794	1304.10339	-1058.29053				70.76067	1281.75037	-870.33801				218.07178	1222.59058	-742.40491				111.62027	920.37244	-907.72974	220.01437	922.58575	-1170.24548	410.92996	962.49646	-930.84204	67.77797	502.85416	-940.64911	341.42914	473.31531	-1182.78943	86.91729	88.03562	-1004.44336				
947	9.460				142.88472	1516.19165	-847.17413				-24.60309	1558.67944	-1070.00745				347.17242	1510.26831	-1032.75867	148.93040	1303.44275	-1061.34534				66.00690	1280.90015	-872.08533				214.91936	1222.23975	-744.79480				107.29371	919.53552	-909.01770	213.19890	922.10565	-1173.57141	405.49417	961.93243	-934.91248	68.32688	498.52719	-940.13629	336.42340	472.98328	-1184.79150	74.89826	85.77142	-1013.85266				
948	9.470				135.43163	1515.81384	-849.66095				-30.23897	1558.86389	-1070.49768				341.49564	1509.49451	-1036.08130	143.02185	1302.35193	-1062.97961				61.40175	1280.26001	-873.34229				211.24423	1220.85547	-747.51514				101.62189	918.92883	-912.65668	206.47940	921.52716	-1176.06885	400.67422	961.48938	-938.44409	68.49937	494.15356	-940.54224	330.89450	472.19644	-1186.86682	63.24094	84.00256	-1025.22754				
949	9.480				128.11063	1515.34497	-851.70508				-35.95660	1558.46936	-1070.92603				336.00638	1507.96619	-1039.34729	137.06033	1301.58618	-1065.40210				57.38276	1279.42285	-875.29053				205.76564	1219.33264	-750.27319				96.35141	918.04639	-914.67712	199.10144	920.64764	-1179.50842	394.79352	960.45380	-942.29431	68.31011	491.14319	-940.78241	324.79965	470.87430	-1188.65759	54.15852	81.94385	-1033.60376				
950	9.490				120.66486	1515.16528	-855.06079				-41.56067	1557.76514	-1070.64160				330.26407	1506.83655	-1042.57336	130.88536	1300.65405	-1067.66223				52.49664	1278.38452	-877.49323				201.74796	1217.61926	-752.89520				90.85396	915.92212	-916.87634	191.85335	919.92499	-1182.09741	388.79044	958.98059	-946.82257	67.72400	487.47238	-944.56378	320.78159	470.09476	-1189.80103	46.43528	79.83948	-1041.50928				
